inDegrees=yes
name=ik_S52_A12_T02
DataType=double
version=3
OpenSimVersion=4.3-2021-08-27-4bc7ad9
endheader
time	pelvis_tilt	pelvis_list	pelvis_rotation	pelvis_tx	pelvis_ty	pelvis_tz	hip_flexion_r	hip_adduction_r	hip_rotation_r	knee_angle_r	knee_angle_r_beta	ankle_angle_r	subtalar_angle_r	mtp_angle_r	hip_flexion_l	hip_adduction_l	hip_rotation_l	knee_angle_l	knee_angle_l_beta	ankle_angle_l	subtalar_angle_l	mtp_angle_l	lumbar_extension	lumbar_bending	lumbar_rotation	arm_flex_r	arm_add_r	arm_rot_r	elbow_flex_r	pro_sup_r	wrist_flex_r	wrist_dev_r	arm_flex_l	arm_add_l	arm_rot_l	elbow_flex_l	pro_sup_l	wrist_flex_l	wrist_dev_l
17.03999999999973	-1.569508362495864	-0.2863619524096401	34.06830142413374	0	0.9399999999999999	0	44.62905569661619	-10.50855958391437	-10.65782996196703	52.00833752169419	0.9077167282420714	0	0	0	44.62905569661619	-10.50855958391437	-10.65782996196703	52.00833752169419	0.9077167282420714	0	0	0	-1.214453834493179	0.4059069748951673	1.927213508022671	9.126573008142975	-7.578792149658338	-1.95077787757791	5.301983324980122	125.5242767542907	0	0	67.72715678113357	-32.88996227308027	-0.05815886513943558	38.33019867148178	87.40588968460197	0	0
17.05999999999973	-1.549785922437133	-0.3155678540276755	34.36318989444889	0	0.9399999999999999	0	44.62920668925394	-10.50783769992701	-10.65723060681004	52.00915576336726	0.9077310092533435	0	0	0	44.62920668925394	-10.50783769992701	-10.65723060681004	52.00915576336726	0.9077310092533435	0	0	0	-1.214641067299505	0.3745427446620013	1.742452266909861	9.040692404099229	-7.542804510062852	-2.163301001087481	5.299166721236062	126.4316584636492	0	0	65.35896662955714	-33.12366686578292	-1.830989285916489	37.29682422059862	89.13231113319422	0	0
17.07999999999972	-1.523249412048226	-0.3126604190212203	34.68553126609174	0	0.9399999999999999	0	44.62940988873495	-10.50686539670594	-10.65642342242382	52.01025507053971	0.9077501957829935	0	0	0	44.62940988873495	-10.50686539670594	-10.65642342242382	52.01025507053971	0.9077501957829935	0	0	0	-1.192011554047811	0.3651037428209386	1.623744444860778	8.905351294514906	-7.554320713246356	-2.270892442257573	5.303249412760112	126.3073836954601	0	0	62.66635232929232	-33.2548888935517	-3.210176650910043	36.70105619451062	90.1140849800484	0	0
17.09999999999972	-1.340234659900066	-0.1559878730204464	35.08124645411023	0	0.9399999999999999	0	44.62961250302162	-10.50589886351406	-10.6556200104971	52.01135312676949	0.9077693604795753	0	0	0	44.62961250302162	-10.50589886351406	-10.6556200104971	52.01135312676949	0.9077693604795753	0	0	0	-0.9517900322515362	0.3873287255810887	1.4263272121136	8.394137880296208	-7.575546895968878	-2.192535226602355	5.274385773377886	125.2021399906057	0	0	59.11760929735989	-33.20505929795092	-5.14139489145134	36.55876095842053	90.46833773576715	0	0
17.11999999999972	-1.101038110757616	0.05330010502458219	35.59504745782738	0	0.9399999999999999	0	44.62982892923921	-10.50486748769352	-10.65476220227129	52.01252577888795	0.9077898271200229	0	0	0	44.62982892923921	-10.50486748769352	-10.65476220227129	52.01252577888795	0.9077898271200229	0	0	0	-0.6339077945540896	0.4231524567104103	1.217046404812724	7.744896043652584	-7.62026691862162	-2.417032971968807	5.251148771520641	125.147355824081	0	0	55.33565048353003	-32.87015746715165	-7.767890355070208	37.68098527079112	91.35848317191295	0	0
17.13999999999972	-1.147338370287606	-0.0157376471103407	35.7622245017229	0	0.9399999999999999	0	44.63340270302961	-10.49348173309398	-10.64371143367038	52.03781432465181	0.9082311955066436	0	0	0	44.63340270302961	-10.49348173309398	-10.64371143367038	52.03781432465181	0.9082311955066436	0	0	0	-0.7133580281893328	0.4061286749373802	1.1111581014365	7.957028015075642	-7.631560101547692	-3.134478240973789	5.167008172147002	125.1079807135599	0	0	52.53241230594523	-32.70413971669745	-10.68258346601765	37.15786111980327	92.73466733202953	0	0
17.15999999999972	-1.143949219454016	-0.02317334647866259	35.95019590990934	0	0.9399999999999999	0	44.63597571447851	-10.485365524029	-10.63581329003227	52.05617817865425	0.9085517052223416	0	0	0	44.63597571447851	-10.485365524029	-10.63581329003227	52.05617817865425	0.9085517052223416	0	0	0	-0.7198213944042042	0.4067823894434802	0.9190473803084053	7.994965701313528	-7.641863546837596	-3.304441928002971	5.218554028229866	125.5531295116544	0	0	49.41766407368272	-32.69470922755133	-13.6628408365755	36.57905871921287	94.68373310738447	0	0
17.17999999999972	-1.066266835379754	0.07934748648556644	36.20230084596232	0	0.9399999999999999	0	44.63619219971542	-10.48436686337899	-10.63497129513961	52.0573627609383	0.9085723800834592	0	0	0	44.63619219971542	-10.48436686337899	-10.63497129513961	52.0573627609383	0.9085723800834592	0	0	0	-0.5973446566394024	0.4499256670116359	0.6418275370957244	7.706133585749853	-7.647523937585161	-3.275189245111683	5.336168291695447	127.2406853465527	0	0	49.14264625302188	-32.53074064650968	-13.89685493097195	33.71523594059641	95.76767457454598	0	0
17.19999999999972	-0.9291421874420086	0.2526488511025388	36.69568713983018	0	0.9399999999999999	0	44.63664322919103	-10.48228210035071	-10.63321295948937	52.05981351214464	0.908615153761157	0	0	0	44.63664322919103	-10.48228210035071	-10.63321295948937	52.05981351214464	0.908615153761157	0	0	0	-0.3721966152998559	0.4733012974238535	0.1857047717370192	7.194155945828858	-7.706199610183948	-3.492248331989668	5.346566835115757	126.789228054649	0	0	42.28451287133813	-32.12928206613864	-17.85267208290148	32.79034079192172	98.17380378485922	0	0
17.21999999999972	-0.9189049769840877	0.2564075583950229	36.61905275052673	0	0.9399999999999999	0	44.63676356539224	-10.48173240112749	-10.63274763829412	52.06047580415373	0.9086267129373252	0	0	0	44.63676356539224	-10.48173240112749	-10.63274763829412	52.06047580415373	0.9086267129373252	0	0	0	-0.3621185347874752	0.4698029002120943	0.2839596306296149	7.164954840899545	-7.729555660954539	-3.504338715843445	5.216792930977285	125.7233291816441	0	0	42.27669449047735	-32.11581693312956	-17.81463636150844	32.81059219967781	98.22117142170646	0	0
17.23999999999972	-0.8064977357215661	0.3513999604918192	36.65320297949688	0	0.9399999999999999	0	44.63710169095035	-10.48017516197588	-10.63143191367033	52.06231448230481	0.908658803924946	0	0	0	44.63710169095035	-10.48017516197588	-10.63143191367033	52.06231448230481	0.908658803924946	0	0	0	-0.2146437679180037	0.4832283977444018	0.2758191342545018	6.769831517348898	-7.774335914823709	-3.82378719611252	5.172747166127204	125.7209800256116	0	0	36.69327326244714	-31.11688724933217	-19.27786536847637	32.52270296522755	99.31396877261557	0	0
